<svg xmlns="http://www.w3.org/2000/svg" width="200" height="80" viewBox="0 0 200 80">
  <!-- Background Circle -->
  <circle cx="40" cy="40" r="35" fill="#059669" stroke="#10b981" stroke-width="2"/>
  
  <!-- Fishing Line -->
  <path d="M5 15 Q40 5, 75 15" stroke="#34d399" stroke-width="3" fill="none" stroke-linecap="round"/>
  <path d="M5 25 Q40 15, 75 25" stroke="#34d399" stroke-width="2" fill="none" stroke-linecap="round"/>
  <path d="M5 35 Q40 25, 75 35" stroke="#10b981" stroke-width="3" fill="none" stroke-linecap="round"/>
  
  <!-- Fishing Hook -->
  <path d="M65 20 Q70 15, 75 20 Q70 25, 65 20" stroke="#ffffff" stroke-width="2" fill="none"/>
  <circle cx="67" cy="18" r="1" fill="#ffffff"/>
  
  <!-- Fish Silhouette -->
  <path d="M15 35 Q25 30, 35 35 Q25 40, 15 35 Z" fill="#ffffff" opacity="0.8"/>
  <path d="M35 35 L40 32 L40 38 Z" fill="#ffffff" opacity="0.8"/>
  <circle cx="22" cy="35" r="1" fill="#059669"/>
  
  <!-- Ripples -->
  <circle cx="30" cy="50" r="8" stroke="#34d399" stroke-width="1" fill="none" opacity="0.6"/>
  <circle cx="50" cy="55" r="6" stroke="#10b981" stroke-width="1" fill="none" opacity="0.4"/>
  
  <!-- Text -->
  <text x="90" y="25" font-family="system-ui, Arial" font-size="24" font-weight="bold" fill="#059669">Cast N</text>
  <text x="90" y="50" font-family="system-ui, Arial" font-size="24" font-weight="bold" fill="#047857">Lines</text>
  
  <!-- Tagline -->
  <text x="90" y="65" font-family="system-ui, Arial" font-size="10" fill="#6b7280">Expert Fishing Line Reviews</text>
  
  <!-- Decorative Elements -->
  <circle cx="180" cy="15" r="2" fill="#34d399" opacity="0.7"/>
  <circle cx="185" cy="25" r="1.5" fill="#10b981" opacity="0.5"/>
  <circle cx="190" cy="35" r="1" fill="#059669" opacity="0.6"/>
</svg>